#!OML:ASF H:\Terrain\Patient Classification 1\Terrain2\Thursday\justin.ASF
:FULLY-SPECIFIED
:DEGREES
2242
root -1.87485 20.4764 -11.3768 896.419 -180.484 -550.673
lowerback 13.5871 1.77923 11.6838
upperback 4.42231 4.07814 5.09147
thorax -2.4582 2.03529 -1.78329
lowerneck -13.7894 -2.93416 -9.41665
upperneck 34.079 -2.67716 3.47702
head 14.1552 -1.86046 2.64463
rclavicle -1.64991e-014 3.73715e-014
rhumerus -18.5953 -5.60653 -77.3155
rradius 31.4275
rwrist -11.6299
rhand -22.6775 12.3788
rfingers 7.12502
rthumb 3.75451 -17.5679
lclavicle -1.64991e-014 3.73715e-014
lhumerus -33.7688 3.56283 85.2588
lradius 40.2927
lwrist 9.61323
lhand -16.4381 23.6062
lfingers 7.12502
lthumb 9.77752 53.3592
rfemur 18.8772 -5.74937 36.3437
rtibia 5.725e-014
rfoot -10.3517 3.22726
rtoes 9.79197
lfemur -64.7591 7.84698 -12.694
ltibia 75.1101
lfoot -0.552099 -18.5774
ltoes -15.0224
2243
root -1.87744 20.4477 -11.2759 896.498 -180.466 -550.767
lowerback 13.5567 1.79232 11.7179
upperback 4.40833 4.09511 5.0604
thorax -2.44959 2.04389 -1.83562
lowerneck -13.8212 -2.89925 -9.36392
upperneck 34.1935 -2.64272 3.49244
head 14.2097 -1.83897 2.64977
rclavicle -7.27552e-014 -1.98785e-014
rhumerus -18.1956 -5.66825 -77.4524
rradius 31.3999
rwrist -11.4953
rhand -22.1408 12.4352
rfingers 7.12502
rthumb 4.2728 -17.5017
lclavicle -7.27552e-014 -1.98785e-014
lhumerus -33.8045 3.9714 85.0108
lradius 40.0036
lwrist 8.7001
lhand -16.7583 21.9173
lfingers 7.12502
lthumb 9.4686 51.6846
rfemur 19.1718 -5.72974 36.4376
rtibia 3.18055e-014
rfoot -10.5859 3.31166
rtoes 9.74274
lfemur -64.7703 7.719 -12.8384
ltibia 74.033
lfoot -0.166729 -17.9213
ltoes -19.6541
2244
root -1.87703 20.4208 -11.1657 896.536 -180.364 -550.603
lowerback 13.4623 1.82989 11.518
upperback 4.4577 4.09375 4.95769
thorax -2.35345 2.0497 -1.82916
lowerneck -13.7704 -2.83304 -9.31023
upperneck 34.2017 -2.56195 3.48246
head 14.1931 -1.79927 2.64975
rclavicle -4.37326e-015 -7.95139e-016
rhumerus -17.7949 -5.76753 -77.6733
rradius 31.3183
rwrist -11.0353
rhand -22.1793 12.6584
rfingers 7.12502
rthumb 4.23563 -17.2793
lclavicle -4.37326e-015 -7.95139e-016
lhumerus -33.7641 3.97088 85.1562
lradius 40.1007
lwrist 9.3835
lhand -16.7333 23.2146
lfingers 7.12502
lthumb 9.49268 52.9808
rfemur 19.5821 -5.61686 36.23
rtibia 1.90833e-014
rfoot -10.7869 3.33678
rtoes 9.33931
lfemur -64.477 7.39591 -13.0249
ltibia 73.016
lfoot -0.206744 -17.1249
ltoes -21.5789
2245
root -1.87633 20.4195 -11.0541 896.633 -180.363 -550.367
lowerback 13.3312 1.84104 11.2083
upperback 4.41352 4.05045 4.88084
thorax -2.35285 2.02686 -1.73173
lowerneck -13.5332 -2.7707 -9.44254
upperneck 34.2012 -2.48949 3.57844
head 14.1373 -1.77398 2.72476
rclavicle 4.21423e-014 -2.54444e-014
rhumerus -17.6826 -5.8059 -77.8498
rradius 31.4841
rwrist -10.3133
rhand -22.2761 11.9631
rfingers 7.12502
rthumb 4.14217 -17.9763
lclavicle 4.21423e-014 -2.54444e-014
lhumerus -33.9779 3.67546 85.4376
lradius 40.4103
lwrist 10.4751
lhand -17.6393 24.2376
lfingers 7.12502
lthumb 8.61845 54.0417
rfemur 19.8942 -5.57369 35.9261
rtibia -7.95139e-014
rfoot -10.9278 3.41476
rtoes 8.76267
lfemur -64.26 6.88482 -12.9501
ltibia 72.0589
lfoot 0.90377 -16.5698
ltoes -17.0597
2246
root -1.87389 20.4088 -10.9498 896.873 -180.403 -550.45
lowerback 13.2012 1.83634 11.2224
upperback 4.28714 4.03997 4.88352
thorax -2.41749 2.01492 -1.73286
lowerneck -13.4896 -2.78433 -9.56246
upperneck 34.378 -2.50097 3.63898
head 14.2128 -1.7907 2.77303
rclavicle -1.10325e-013 -5.00937e-014
rhumerus -17.6029 -5.62752 -78.0333
rradius 31.684
rwrist -10.1447
rhand -22.5166 11.5278
rfingers 7.12502
rthumb 3.90991 -18.416
lclavicle -1.10325e-013 -5.00937e-014
lhumerus -34.1906 3.91426 85.2881
lradius 40.2648
lwrist 9.60083
lhand -18.4783 22.4715
lfingers 7.12502
lthumb 7.80871 52.3073
rfemur 19.9877 -5.55513 35.9825
rtibia 1.04958e-013
rfoot -11.0095 3.52805
rtoes 8.63234
lfemur -64.3887 6.6353 -12.8125
ltibia 71.2888
lfoot 1.96723 -15.9973
ltoes -14.789
2247
root -1.87046 20.3953 -10.8453 897.052 -180.355 -550.751
lowerback 13.1142 1.87053 11.5121
upperback 4.25004 4.11204 4.89709
thorax -2.37987 2.0516 -1.88133
lowerneck -13.6171 -2.82937 -9.51494
upperneck 34.58 -2.56309 3.6267
head 14.3383 -1.81635 2.75408
rclavicle 1.5704e-014 -2.3059e-014
rhumerus -17.3157 -5.46628 -78.2954
rradius 31.5788
rwrist -10.8958
rhand -22.9097 12.5997
rfingers 7.12502
rthumb 3.53027 -17.3508
lclavicle 1.5704e-014 -2.3059e-014
lhumerus -34.2177 4.2824 85.0066
lradius 39.9804
lwrist 8.17271
lhand -18.5833 21.334
lfingers 7.12502
lthumb 7.70735 51.1736
rfemur 20.1687 -5.48496 36.2804
rtibia -6.67916e-014
rfoot -11.024 3.64276
rtoes 8.58155
lfemur -64.3083 6.51367 -12.453
ltibia 70.7349
lfoot 2.78445 -15.4332
ltoes -12.7313
2248
root -1.86908 20.3862 -10.7336 897.179 -180.283 -550.893
lowerback 13.0885 1.9275 11.6482
upperback 4.22688 4.20057 4.85778
thorax -2.36641 2.09557 -2.00691
lowerneck -13.7624 -2.82307 -9.40949
upperneck 34.7331 -2.55021 3.57675
head 14.4374 -1.80581 2.72028
rclavicle 1.13307e-014 2.8625e-014
rhumerus -17.0819 -5.80525 -78.4763
rradius 31.4986
rwrist -10.9731
rhand -22.5936 13.106
rfingers 7.12502
rthumb 3.83551 -16.8392
lclavicle 1.13307e-014 2.8625e-014
lhumerus -34.1973 4.30548 84.9789
lradius 39.7816
lwrist 7.81354
lhand -17.6726 21.9589
lfingers 7.12502
lthumb 8.58627 51.7643
rfemur 20.4732 -5.39712 36.4151
rtibia -1.59028e-014
rfoot -10.9951 3.68213
rtoes 7.8954
lfemur -64.1482 6.32137 -12.1094
ltibia 70.395
lfoot 2.97731 -15.4183
ltoes -13.2674
2249
root -1.86682 20.3731 -10.6191 897.447 -180.141 -550.958
lowerback 12.9743 2.01096 11.6729
upperback 4.15708 4.3014 4.83265
thorax -2.363 2.14332 -2.05575
lowerneck -13.8962 -2.80744 -9.30995
upperneck 34.8327 -2.46088 3.35424
head 14.5025 -1.78542 2.62689
rclavicle -5.96354e-016 -1.11319e-014
rhumerus -17.1106 -6.03133 -78.5632
rradius 31.6817
rwrist -10.6595
rhand -22.3964 13.123
rfingers 7.12502
rthumb 4.02598 -16.8187
lclavicle -5.96354e-016 -1.11319e-014
lhumerus -34.1177 4.47161 85.0645
lradius 39.5059
lwrist 7.70005
lhand -15.9013 22.5278
lfingers 7.12502
lthumb 10.2954 52.2558
rfemur 20.6395 -5.19718 36.4773
rtibia -4.13472e-014
rfoot -11.0725 3.76979
rtoes 7.20506
lfemur -64.261 6.3907 -12.1059
ltibia 70.0999
lfoot 2.49665 -15.7841
ltoes -17.1177
2250
root -1.86178 20.3605 -10.505 897.72 -180.056 -551.025
lowerback 12.7727 2.06994 11.6919
upperback 4.0989 4.35541 4.83383
thorax -2.30731 2.17102 -2.06251
lowerneck -13.8652 -2.81898 -9.31187
upperneck 34.8557 -2.42286 3.19704
head 14.5025 -1.79099 2.5687
rclavicle 4.35338e-014 4.69132e-014
rhumerus -17.259 -5.78221 -78.6881
rradius 32.0413
rwrist -11.063
rhand -22.4163 13.5947
rfingers 7.12502
rthumb 4.00676 -16.3474
lclavicle 4.35338e-014 4.69132e-014
lhumerus -34.1382 4.78777 85.0966
lradius 39.2838
lwrist 7.18143
lhand -14.8951 22.9012
lfingers 7.12502
lthumb 11.2659 52.5787
rfemur 20.7704 -5.04564 36.5224
rtibia 4.45278e-014
rfoot -11.1974 3.89412
rtoes 5.79762
lfemur -64.2977 6.41137 -12.1475
ltibia 69.889
lfoot 2.33508 -16.0104
ltoes -17.2823
